<svg xmlns="http://www.w3.org/2000/svg" width="480.103" height="479.946" viewBox="283.917 241.019 480.103 479.946" xml:space="preserve"><path fill="#FFF" d="M651.888 271.738c2.874 2.046 5.265 3.296 7.089 5.114 33.515 33.408 66.969 66.878 100.419 100.352 6.147 6.151 6.152 9.489.099 15.546a175654.95 175654.95 0 0 1-75.999 75.996c-5.855 5.851-9.335 5.887-15.176-.014-5.127-5.179-10.105-10.507-16.069-16.73-.181 2.918-.344 4.318-.344 5.719-.015 83.815-.016 167.629-.018 251.444 0 9.599-2.175 11.802-11.657 11.802l-345.423-.002c-8.237 0-10.885-2.533-10.885-10.58-.007-126.305-.033-252.61.163-378.915.005-3.249 1.657-7.306 3.931-9.617a7003.645 7003.645 0 0 1 76.702-76.703c2.313-2.278 6.353-3.96 9.596-3.968 89.146-.206 178.293-.163 267.44-.147 7.436.001 10.104 2.75 10.128 10.312.021 6.992.004 13.984.004 20.391zM603.894 704.76v-4.32c-.005-97.462.009-194.923-.129-292.385-.003-2.155-1.202-4.814-2.725-6.381-10.913-11.229-22.216-22.083-32.991-33.439-2.247-2.368-3.93-6.319-3.972-9.565-.323-24.986-.183-49.978-.173-74.968.003-8.149 2.552-10.665 10.772-10.675 9.606-.012 19.212-.003 28.864-.003v-15.605H379.921c0 23.383.01 46.367-.006 69.352-.005 7.561-2.66 10.231-10.184 10.237-21.325.018-42.65.006-63.974.006h-5.551v367.745l303.688.001zm-23.992-415.737v5.997c.003 19.484-.103 38.97.147 58.451.031 2.452 1.326 5.482 3.058 7.23 29.666 29.917 59.492 59.674 89.29 89.461 1.123 1.123 2.313 2.179 2.48 2.336l68.541-68.535c-30.652-30.668-61.834-61.885-93.075-93.042-.951-.948-2.515-1.812-3.797-1.818-21.968-.111-43.936-.08-66.644-.08zm40.347 131.282v284.42h15.627v-5.102c.001-34.654 0-69.308.002-103.962.003-51.481.032-102.962-.072-154.443-.005-2.274-.598-5.067-1.988-6.719-3.953-4.7-8.461-8.934-13.569-14.194zM363.822 270.549l-50.092 50.086h50.092v-50.086zm271.733 2.371v-15.528h-15.24v15.528h15.24z"/><path fill="#FFF" d="M763.874 613.458c0 29.812.008 59.623-.004 89.435-.005 11.869-6.268 18.063-18.244 18.072-14.656.012-29.312.025-43.968-.005-11.307-.023-17.758-6.362-17.762-17.55-.022-59.956-.062-119.912.133-179.868.01-3.193 1.386-6.923 3.338-9.477 9.399-12.301 19.191-24.303 28.892-36.372 4.954-6.164 10.231-6.173 15.211.004 9.718 12.055 19.531 24.041 28.907 36.358 2.029 2.666 3.322 6.605 3.35 9.971.254 29.808.148 59.62.147 89.432zm-16.332 91.271V529.388h-47.416v175.341h47.416zm-38.728-192.077h30.136l-15.078-18.83-15.058 18.83z"/><path fill="#E58E29" d="M475.817 657.281c.687 9.632-.142 18.655-7.768 25.442-4.669 4.156-10.134 6.293-16.41 6.24-14.815-.125-21.828-9.301-24.088-31.697-11.779-1.388-20.097-7.215-23.008-19.252-.616-2.547-.608-5.282-.615-7.932-.045-16.996-.098-33.994.066-50.989.03-3.125-.981-4.624-3.792-5.988-72.026-34.967-90.841-127.527-38.209-187.603 57.525-65.661 165.193-48.684 199.816 31.506 25.665 59.442.447 127.582-57.808 155.806-3.249 1.574-4.206 3.357-4.171 6.79.17 16.828.066 33.659.093 50.489.027 15.833-7.678 24.782-24.106 27.188zm4.246-92.638c45.943-12.031 80.444-57.847 75.335-108.797-5.676-56.604-50.894-95.947-107.549-94.84-51.742 1.011-96.486 44.23-99.7 96.944-3.477 57.015 37.209 97.488 75.57 106.452l-11.7-82.224 15.615-2.246c.401 1.986.769 3.428.977 4.893 3.132 22.08 6.352 44.148 9.324 66.249 2.595 19.295 2.56 19.39 21.073 17.736.332-.03.791.074.975-.106 1.335-1.304 3.53-2.521 3.769-4.031 2.261-14.299 4.164-28.655 6.215-42.988 1.975-13.8 4.004-27.591 6.072-41.816l15.766 2.342-11.742 82.432zm3.614 15.945c-21.22 5.84-42.26 5.79-63.373.045v12.09h63.373v-12.135zm-63.525 36.069h63.534v-7.406h-63.534v7.406zm63.724 16.638h-63.994c.996 5.143 3.771 7.655 8.616 7.666 15.639.036 31.278.045 46.917-.019 4.826-.019 7.634-2.529 8.461-7.647zM444.04 657.22c.152 5.361-2.004 11.329 3.939 14.392 2.263 1.167 6.466.893 8.62-.511 5.218-3.401 3.026-8.994 3.105-13.88l-15.664-.001z"/><path fill="#FFF" d="M444.137 304.69v-15.429h63.377v15.429h-63.377zM484.134 336.68v-15.418h63.377v15.418h-63.377zM587.673 585.328v15.399h-63.368v-15.399h63.368zM587.677 617.32v15.407H524.3V617.32h63.377zM524.175 649.231c.854-.104 1.484-.248 2.115-.248 20.293-.012 40.586-.01 61.245-.01v15.704h-63.36v-15.446zM524.138 304.753v-15.377h23.441v15.377h-23.441zM643.898 329.052c-.038 13.301-10.971 24.086-24.298 23.97-13.052-.114-23.718-10.937-23.699-24.048.019-13.335 10.908-24.076 24.279-23.95 13.074.124 23.755 10.944 23.718 24.028zm-23.937 7.937c4.301-.02 7.89-3.613 7.904-7.914.014-4.32-3.497-7.939-7.796-8.038-4.5-.103-8.265 3.666-8.156 8.166.104 4.299 3.729 7.805 8.048 7.786zM673.32 421.643l-10.378-9.777 39.658-39.72 9.925 10.26-39.205 39.237z"/><path fill="#E58E29" d="m391.487 472.147-7.133-14.347c11.353-5.611 22.258-11.212 33.4-16.294 1.829-.834 4.936.117 7.049 1.105 8.133 3.802 16.041 8.085 24.183 11.867 1.633.759 4.22.759 5.855.002 8.145-3.774 16.019-8.143 24.215-11.793 2.453-1.092 6.116-1.589 8.41-.555 10.592 4.776 20.896 10.189 31.912 15.677l-6.996 14.358c-8.356-4.168-16.547-8.087-24.559-12.342-2.805-1.49-4.958-1.551-7.791-.023-7.609 4.103-15.275 8.18-23.232 11.519-2.813 1.18-6.961 1.199-9.761.009-8.249-3.506-16.068-8.012-24.204-11.807-1.63-.76-4.221-.759-5.852.001-8.425 3.925-16.68 8.211-25.496 12.623z"/></svg>