<svg xmlns="http://www.w3.org/2000/svg" width="510.998" height="510.334" viewBox="268.47 225.77 510.998 510.334" xml:space="preserve"><path fill="#FFF" d="M729.324 225.77H318.618c-27.653 0-50.148 22.499-50.148 50.16v267.127c0 27.903 22.702 50.604 50.604 50.604h108.971l-10.078 42.214h-20.986c-21.805 0-39.544 17.739-39.544 39.544v13.63a7.59 7.59 0 0 0 7.587 7.591h74.25l-3.314 31.068a7.582 7.582 0 0 0 1.903 5.879 7.583 7.583 0 0 0 5.641 2.518l303.326-.004a7.58 7.58 0 0 0 5.637-2.507 7.58 7.58 0 0 0 1.91-5.864l-5.786-55.676a7.58 7.58 0 0 0-8.331-6.764 7.59 7.59 0 0 0-6.764 8.331l4.916 47.302H626.977l-17.212-161.251a7.584 7.584 0 0 0-7.544-6.784h-83.653l6.768-65.111h32.195v16.69c0 4.191 3.4 7.591 7.591 7.591s7.591-3.4 7.591-7.591v-16.69h94.097v16.69a7.59 7.59 0 1 0 15.178 0v-16.69h32.195l16.643 160.164a7.587 7.587 0 0 0 8.331 6.764 7.588 7.588 0 0 0 6.764-8.335l-5.614-54.027c22.491-5.24 39.162-25.552 39.162-49.287V275.93c.003-27.661-22.496-50.16-50.145-50.16zM443.647 593.661h6.616l-4.503 42.214h-12.191l10.078-42.214zm-71.033 87.801v-6.043c0-13.435 10.928-24.366 24.366-24.366h47.158l-3.244 30.409h-68.28zm239.096 39.462H451.948l16.316-152.858h127.131l16.315 152.858zm-38.998-248.328v-18.211c0-25.942 21.103-47.049 47.049-47.049 25.942 0 47.049 21.107 47.049 47.049v18.211h-94.098zm109.278 0v-18.211c0-34.312-27.918-62.226-62.23-62.226s-62.226 27.914-62.226 62.226v18.211h-39.037a7.591 7.591 0 0 0-7.548 6.807l-5.302 50.994H374.848a7.586 7.586 0 0 0-7.587 7.587 7.59 7.59 0 0 0 7.587 7.591h129.22l-.76 7.314h-41.867a7.59 7.59 0 0 0-7.548 6.784l-2.008 18.811H319.074c-18.682 0-34.027-14.546-35.326-32.904h65.801c4.191 0 7.587-3.396 7.587-7.587s-3.396-7.591-7.587-7.591h-65.903V275.93c0-19.29 15.688-34.982 34.971-34.982h410.706c19.283 0 34.971 15.692 34.971 34.982v254.468h-30.421l-5.298-50.994a7.591 7.591 0 0 0-7.548-6.807H681.99zm56.733 104.484-3.275-31.505h28.745c-1.064 14.877-11.454 27.423-25.47 31.505z"/><path fill="#E58E29" d="M509.008 319.922h-61.341v-22.768c0-13.669-11.123-24.791-24.791-24.791-13.669 0-24.791 11.123-24.791 24.791v22.768h-61.341c-9.977 0-18.094 8.117-18.094 18.09v12.386c0 8.004 5.232 14.799 12.448 17.181l10.394 79.201c2.016 15.365 15.22 26.947 30.713 26.947h101.341c15.493 0 28.694-11.583 30.713-26.947l10.394-79.201c7.216-2.378 12.448-9.177 12.448-17.181v-12.386c-.003-9.973-8.12-18.09-18.093-18.09zm0 15.177a2.915 2.915 0 0 1 2.912 2.912v12.386a2.918 2.918 0 0 1-2.912 2.916h-61.341v-18.214h61.341zm-95.747-37.945c0-5.302 4.312-9.614 9.614-9.614 5.298 0 9.61 4.312 9.61 9.614v81.961c0 5.302-4.312 9.614-9.61 9.614-5.302 0-9.614-4.312-9.614-9.614v-81.961zm-79.434 40.858a2.918 2.918 0 0 1 2.916-2.912h61.341v18.214h-61.341a2.922 2.922 0 0 1-2.916-2.916v-12.386zm155.38 106.795c-1.025 7.832-7.762 13.743-15.661 13.743H372.205c-7.903 0-14.635-5.91-15.665-13.743l-10.012-76.316h51.556v10.624c0 13.673 11.123 24.791 24.791 24.791 13.673 0 24.791-11.119 24.791-24.791v-10.624h51.559l-10.018 76.316zM506.786 623.75v-32.632a7.586 7.586 0 0 0-7.587-7.587 7.59 7.59 0 0 0-7.591 7.587v32.632c0 22.179 18.043 40.222 40.222 40.222 22.175 0 40.218-18.043 40.218-40.222v-32.632c0-4.191-3.396-7.587-7.587-7.587s-7.591 3.396-7.591 7.587v32.632c0 13.809-11.232 25.045-25.041 25.045-13.807 0-25.043-11.236-25.043-25.045z"/><path fill="#FFF" d="M595.71 302.861h-32.382c-4.191 0-7.587 3.4-7.587 7.591s3.396 7.587 7.587 7.587h32.382c4.191 0 7.587-3.396 7.587-7.587s-3.396-7.591-7.587-7.591zM629.102 318.039h105.236c4.191 0 7.587-3.396 7.587-7.587s-3.396-7.591-7.587-7.591H629.102a7.59 7.59 0 1 0 0 15.178zM595.71 338.281h-32.382c-4.191 0-7.587 3.396-7.587 7.587s3.396 7.591 7.587 7.591h32.382c4.191 0 7.587-3.4 7.587-7.591s-3.396-7.587-7.587-7.587zM741.924 345.867a7.586 7.586 0 0 0-7.587-7.587H629.102a7.59 7.59 0 1 0 0 15.178h105.236c4.191 0 7.586-3.4 7.586-7.591z"/></svg>