<svg xmlns="http://www.w3.org/2000/svg" width="495.997" height="497.119" viewBox="268.171 225.344 495.997 497.119" xml:space="preserve"><path fill="#FFF" d="M371.864 434.476c-19.055-74.985-4.309-139.296 62.395-183.221 54.301-35.757 111.519-33.729 166.432 1.28 29.969 19.106 49.929 46.734 60.452 80.714 10.405 33.598 9.427 67.265-1.639 101.231 7.369 0 14.306.003 21.243-.001 14.495-.007 28.991-.089 43.486-.01 22 .12 39.848 17.738 39.876 39.696.088 69.479.076 138.958-.018 208.437-.03 22.473-17.854 39.823-40.7 39.829-123.629.031-247.259.017-370.888.018-14.496 0-28.991.034-43.487-.012-23.361-.074-40.802-17.43-40.815-40.743-.039-68.979-.034-137.959-.004-206.938.01-22.535 17.794-40.256 40.294-40.273 19.827-.015 39.654-.005 59.481-.007h3.892zm8.32-53.85c-.189 28.081 6.095 52.21 21.315 75.746 35.794 55.352 71.992 110.441 108.078 165.604 4.06 6.206 9.328 5.833 13.675-.811 35.36-54.05 70.74-108.087 106.034-162.179 22.002-33.72 27.869-70.632 19.566-109.549-16.298-76.398-94.624-123.161-169.663-101.796-59.206 16.856-99.931 71.261-99.005 132.985zm287.724 309.517H364.537V466.168h23.787c-2.705-4.926-5.041-9.318-7.54-13.615-.503-.865-1.616-1.943-2.461-1.955-9.929-.136-19.861-.087-29.762-.087v255.678h335.258V450.488c-9.946 0-19.582-.042-29.217.066-.945.01-2.289.694-2.75 1.476-2.672 4.53-5.134 9.183-8.026 14.445h24.082v223.668zm-335.934-239.63c-8.191 0-15.844-.091-23.495.02-14.055.203-24.214 10.299-24.231 24.448-.083 69.153-.085 138.306-.03 207.458.009 11.828 8.152 22.091 19.802 23.452 9.136 1.068 18.497.214 27.954.214V450.513zm368.501.014v255.921c7.32 0 14.299.007 21.277-.001 16.532-.02 26.365-9.873 26.369-26.456.009-30.661-.002-61.323-.002-91.984 0-37.494.044-74.988-.018-112.481-.023-13.837-9.578-24.385-22.746-24.935-8.14-.341-16.307-.064-24.88-.064zm-240.15 223.717V626.39h32.986l-64.166-98.101-1.067.438v65.809H380.55v32.074h47.716v47.635l32.059-.001zM652.009 594.3h-48.195v-67.048l-64.989 99.439h33.569v47.465h31.871v-47.987h47.744V594.3zm-239.858-16.066c0-25.027.022-49.471-.058-73.915-.005-1.381-.598-2.915-1.344-4.112a411.838 411.838 0 0 0-9.804-15.032c-.759-1.108-2.119-2.487-3.256-2.538-5.74-.258-11.498-.119-17.147-.119v95.715l31.609.001zm239.773-95.413c-17.85-1.63-17.85-1.63-27.181 12.485-.826 1.25-1.889 2.404-2.436 3.765-.897 2.231-2.058 4.592-2.074 6.905-.153 22.494-.091 44.99-.091 67.485v4.729h31.781l.001-95.369zm-96.061 191.422v-31.46h-79.336v31.46h79.336zm-175.386-31.692v31.552h31.296v-31.552h-31.296zm271.354 31.805v-31.551h-31.297v31.551h31.297z"/><path fill="#FFF" d="M347.953 290.354v15.937c-15.023.776-27.603 6.419-37.043 18.076-7.504 9.267-11.069 19.968-10.697 31.968.655 21.099 16.839 44.653 47.658 46.385v15.853c-22.216-.855-40.062-9.79-52.377-28.094-14.458-21.49-15.64-44.418-3.035-67.064 11.843-21.277 30.788-31.844 55.494-33.061zM684.347 418.593v-15.842c15.697-.925 28.901-7.005 38.411-19.855 6.886-9.304 9.945-19.867 9.298-31.436-1.366-24.456-19.055-41.344-47.675-45.363v-15.725c23.176 1.039 41.509 10.51 53.62 29.947 14.143 22.699 14.078 46.215-.312 68.809-12.19 19.139-30.379 28.48-53.342 29.465z"/><path fill="#FFF" d="M347.972 322.66v13.713c-4.836 3.456-9.559 5.889-12.907 9.573-2.044 2.249-2.736 6.428-2.7 9.726.086 7.867 5.841 13.153 15.811 15.122v15.059c-14.866 2.068-30.64-12.217-31.914-28.544-1.457-18.656 12.739-34.464 31.71-34.649zM684.354 338.16v-15.254c16.049-1.159 31.147 13.283 31.752 30.115.652 18.131-13.39 33.133-31.584 33.303v-13.975c4.534-3.131 9.197-5.413 12.488-8.965 2.089-2.254 2.902-6.388 2.948-9.698.11-7.995-5.607-13.368-15.604-15.526z"/><path fill="#E58E29" d="M636.142 378.42c.396 64.786-53.422 119.706-117.671 120.08-66.844.389-121.983-52.551-122.32-117.44-.352-67.843 52.532-122.221 119.187-122.554 66.594-.334 120.395 53.072 120.804 119.914zM514.689 274.588c.498 11.382 1.223 22.429 1.403 33.485.218 13.372-5.88 21.869-18.602 26.355-3.65 1.287-5.228 3.304-5.437 7.249-.786 14.838-12.13 26.899-26.579 28.66-14.947 1.821-28.86-7.457-33.169-22.182-.84-2.87-1.107-5.952-2.256-8.676-1.278-3.028-3.262-5.759-5.571-9.696-9.607 18.779-13.52 36.905-11.885 56.172 28.285 4.441 36.139 11.319 44.881 38.976 1.692 5.354 6.626 9.192 12.243 9.525 5.778.342 11.414-3.038 13.318-8.576.892-2.594 1.018-5.529 1.08-8.319.433-19.462 19.078-34.435 38.049-30.467 16.358 3.421 25.857 16.041 26.046 34.099.071 6.784-.706 14.15 1.621 20.206 3.824 9.953 9.862 19.055 14.932 28.452 14.298-6.376 34.087-24.998 37.725-35.154-.496-.065-.984-.167-1.474-.187-21.749-.911-35.84-14.886-36.874-36.624-.265-5.565-2.215-10.336-6.213-14.274-2.609-2.57-5.198-5.169-7.656-7.882-23.259-25.675-24.309-62.671-2.579-89.563 1.303-1.612 2.578-3.247 4.098-5.164-12.886-4.46-25.332-6.918-37.101-6.415zM567.3 288.3c-7.07 7.015-13.158 14.456-16.156 23.881-6.945 21.836-1.892 40.788 14.629 56.47 9.024 8.566 14.385 18.35 14.563 31.088.139 9.953 8.811 18.099 18.77 18.659 2.99.168 6.022-.175 8.987.15 3.317.363 4.584-1.194 5.669-4.057 17.721-46.756-2.318-101.747-46.462-126.191zm-17.24 187.724c-3.951-6.945-7.864-13.877-11.831-20.778-4.16-7.238-6.235-14.99-6.094-23.356.081-4.827.209-9.668-.063-14.482-.473-8.393-7.537-14.877-15.865-14.881-8.411-.004-15.317 6.365-15.966 14.777-.128 1.657-.035 3.33-.112 4.992-.71 15.215-13.24 27.622-28.435 28.173-15.041.545-27.305-9.426-30.474-24.777-2.814-13.633-14.302-23.66-25.621-22.364 15.095 63.486 83.86 93.306 134.461 72.696zm-53.332-199.779c-26.802 6.098-47.924 19.15-63.862 40.484 10.538 10.489 10.541 10.497 14.425 25.391.209.803.458 1.598.735 2.381 2.349 6.629 8.357 10.586 15.015 9.902 6.941-.713 12.615-5.947 12.938-13.025.529-11.604 5.995-18.949 17.099-22.314 4.416-1.338 6.968-4.505 7.036-9.22.096-6.652.387-13.34-.162-19.949-.373-4.486-2.045-8.865-3.224-13.65z"/><path fill="#FFF" d="M491.819 546.257h-15.412v-15.406h15.412v15.406zM523.979 530.863v15.298H508.42v-15.298h15.559zM555.804 546.27H540.41v-15.41h15.394v15.41zM316.006 554.831v47.361h-15.602v-47.361h15.602zM731.802 610.251h-15.426v-63.382h15.426v63.382zM716.307 530.25v-15.468h15.555v15.468h-15.555zM716.412 626.706h15.345v15.415h-15.345v-15.415z"/></svg>