<svg xmlns="http://www.w3.org/2000/svg" width="447.989" height="480.003" viewBox="299.975 240.936 447.989 480.003" xml:space="preserve"><path fill="#FFF" d="M347.996 416.946c0-16.83.003-33.118-.001-49.406-.007-30.992-.011-61.985-.031-92.977-.013-19.831 13.785-33.63 33.606-33.627 110.472.017 220.945.022 331.417.033 22.001.002 34.982 13.167 34.977 35.191-.031 136.799-.017 273.599-.016 410.398 0 20.971-13.363 34.351-34.307 34.352-110.806.006-221.611.01-332.417.029-19.26.003-33.157-13.748-33.226-32.955-.008-2.141-.001-4.283-.001-7.04-3.067 0-5.837.002-8.606 0-10.164-.01-20.329.042-30.492-.056-5.71-.055-8.832-2.973-8.855-8.521a7186.6 7186.6 0 0 1 .003-62.984c.025-5.46 3.249-8.401 8.959-8.434 12.797-.074 25.596-.023 38.691-.023v-23.999c-12.486 0-24.772.01-37.058-.003-8.142-.009-10.628-2.507-10.63-10.802-.014-46.322-.012-92.644-.001-138.965.002-7.575 2.626-10.192 10.195-10.204 12.325-.021 24.65-.007 37.793-.007zm16.26 183.98h6.285c87.141 0 174.283-.02 261.424.081 3.206.004 6.725.547 9.564 1.933 20.034 9.777 39.908 19.879 59.884 29.775 3.492 1.73 6.39 3.734 6.498 8.001.115 4.524-2.863 6.68-6.527 8.499-19.375 9.618-38.64 19.46-58.092 28.919-3.43 1.668-7.563 2.661-11.373 2.667-87.138.147-174.277.113-261.416.113h-6.169c-2.32 16.831 5.764 24.266 21.2 24.193 86.637-.407 173.277-.194 259.915-.198 23.326-.001 46.652.05 69.977-.063 9.797-.048 16.225-6.563 16.48-16.284.066-2.498.04-4.998.04-7.497.001-118.462.001-236.924-.011-355.386 0-1.447-.148-2.893-.23-4.395H364.407v95.662h7.39c52.483 0 104.966-.007 157.449.006 8.232.002 10.721 2.512 10.722 10.711.007 45.985.008 91.97-.001 137.956-.002 8.941-2.33 11.302-11.149 11.303-52.816.008-105.633.004-158.449.004h-6.114l.001 24zm159.367-40.232V433.329H316.254v127.365h207.369zM364.032 304.611h367.563c.158-.663.298-.977.299-1.292.026-9.164.055-18.328.049-27.491-.009-12.924-5.994-18.859-19.009-18.859-71.315-.003-142.629-.002-213.944.001-39.323.002-78.646 0-117.969.021-9.375.005-16.639 6.092-16.908 14.808-.335 10.803-.081 21.626-.081 32.812zm32.169 327.929H627.7v-15.341H396.201v15.341zm.02 32.02h231.498v-15.387H396.221v15.387zm-48.598.135v-47.533h-31.321v47.533h31.321zm16.712-47.536v47.349h15.405v-47.349h-15.405zm279.857 42.713 37.779-18.997-37.779-18.847v37.844z"/><path fill="#E58E29" d="M675.501 488.849h16.119v15.916h-15.636c0 7.126.016 13.877-.004 20.628-.027 9.232-2.304 11.553-11.447 11.562a26971.7 26971.7 0 0 1-58.986-.009c-6.489-.008-9.506-2.925-9.582-9.38-.086-7.308-.02-14.617-.02-22.501h-15.736v-15.939h15.749c0-3.812.362-7.146-.15-10.339-.262-1.636-1.833-3.336-3.244-4.472-22.597-18.198-32.389-41.755-27.283-70.247 4.957-27.662 21.73-46.464 48.311-55.539 33.116-11.305 70.134 3.964 86.063 34.717 16.391 31.646 8.041 69.691-20.34 90.845-5.642 4.203-2.059 9.415-3.814 14.758zm-15.548-.023c0-3.851.327-7.346-.068-10.758-.824-7.124 2.056-11.396 8.081-15.486 25.487-17.303 31.486-52.687 13.776-77.765-18.016-25.511-52.996-31.492-78.293-13.386-32.243 23.077-30.979 70.985 2.566 92.657 4.251 2.746 6.373 5.907 6.014 11.018-.311 4.429-.065 8.897-.065 13.506h15.994c0-14.289.094-28.255-.125-42.216-.026-1.658-1.47-3.586-2.765-4.881-6.209-6.21-12.594-12.246-18.18-17.634l11.564-12.914 17.963 19.345 17.678-18.752 11.633 11.178c-6.381 6.306-12.681 12.222-18.555 18.533-1.698 1.825-2.97 4.757-3.068 7.235-.353 8.979-.122 17.981-.114 26.974.004 4.417.001 8.835.001 13.347l15.963-.001zm-.406 31.92v-15.542h-47.268v15.542h47.268z"/><path fill="#FFF" d="M539.747 377.277v15.44H388.376v-15.44h151.371zM420.208 360.631v-15.425H539.58v15.425H420.208zM707.729 561.253v15.44H588.346v-15.44h119.383zM388.191 360.61v-15.398h15.41v15.398h-15.41zM571.584 576.764h-15.32v-15.585h15.32v15.585z"/><path fill="#E58E29" d="m411.42 539.913-14.85-6.011 31.958-79.868 14.865 5.857-31.973 80.022zM383.186 466.547l9.567 12.779-23.309 17.565 23.284 17.661-9.554 12.812c-11.049-8.337-22.033-16.377-32.703-24.814-3.711-2.934-3.588-8.533.162-11.465 10.6-8.286 21.472-16.224 32.553-24.538zM456.751 466.527c11.023 8.256 21.594 16.019 31.979 24.023 4.537 3.497 4.506 9.253-.086 12.801-10.371 8.013-20.934 15.776-31.833 23.951l-9.61-12.783 23.339-17.539-23.279-17.65 9.49-12.803z"/><path fill="#FFF" d="M380.363 273.139h15.345v15.586h-15.345v-15.586zM427.745 273.259v15.321h-15.429v-15.321h15.429zM444.217 288.684V273.33h15.442v15.354h-15.442z"/></svg>