<?xml version="1.0" encoding="utf-8"?>
<!-- Generator: Adobe Illustrator 27.0.0, SVG Export Plug-In . SVG Version: 6.00 Build 0)  -->
<svg version="1.1" id="Layer_1" xmlns="http://www.w3.org/2000/svg" xmlns:xlink="http://www.w3.org/1999/xlink" x="0px" y="0px"
	 viewBox="0 0 527.1 527.1" style="enable-background:new 0 0 527.1 527.1;" xml:space="preserve">
<style type="text/css">
	.st0{fill:#DEFCF9;}
	.st1{fill:#20B2AA;}
</style>
<path class="st0" d="M263.5,0C193.6,0,126.6,27.8,77.2,77.2S0,193.6,0,263.5s27.8,136.9,77.2,186.3S193.6,527,263.5,527
	s136.9-27.8,186.3-77.2S527,333.3,527,263.5c-0.1-69.9-27.9-136.9-77.3-186.2C400.4,27.9,333.4,0.1,263.5,0L263.5,0z M263.5,494.1
	L263.5,494.1c-61.2,0-119.8-24.3-163.1-67.5c-43.2-43.2-67.5-101.9-67.5-163s24.3-119.8,67.5-163.1C143.6,57.3,202.3,33,263.5,33
	s119.8,24.3,163,67.5S494,202.4,494,263.6c-0.1,61.1-24.4,119.8-67.6,163C383.3,469.7,324.7,494.1,263.5,494.1L263.5,494.1z"/>
<path class="st0" d="M263.5,240.2L182,158.7c-4.2-4-10.2-5.6-15.8-4c-5.6,1.5-10,5.9-11.5,11.5s0,11.6,4,15.8l81.5,81.5L158.7,345
	c-3.2,3.1-5,7.3-5,11.7c0,4.4,1.7,8.7,4.8,11.8s7.4,4.9,11.8,4.8c4.4,0,8.6-1.9,11.7-5l81.5-81.5l81.5,81.5c4.2,4,10.2,5.6,15.8,4
	c5.6-1.5,10-5.9,11.5-11.5s0-11.6-4-15.8l-81.5-81.5"/>
<path class="st1" d="M303.5,246.8l64.8-64.8c3.1-3.1,4.8-7.3,4.8-11.6c0-4.4-1.7-8.6-4.8-11.6l0,0c-3.1-3.1-7.3-4.8-11.6-4.8
	c-4.4,0-8.6,1.7-11.6,4.8l-64.8,64.8L303.5,246.8z"/>
</svg>
