<?xml version="1.0" encoding="utf-8"?>
<!-- Generator: Adobe Illustrator 27.0.0, SVG Export Plug-In . SVG Version: 6.00 Build 0)  -->
<svg version="1.1" id="Layer_1" xmlns="http://www.w3.org/2000/svg" xmlns:xlink="http://www.w3.org/1999/xlink" x="0px" y="0px"
	 viewBox="0 0 26 18" style="enable-background:new 0 0 26 18;" xml:space="preserve">
<style type="text/css">
	.st0{fill:#20B2AA;}
	.st1{fill:#FFFFFF;}
</style>
<path class="st0" d="M10,1h14c0.6,0,1,0.4,1,1l0,0c0,0.6-0.4,1-1,1H10C9.4,3,9,2.6,9,2l0,0C9,1.4,9.4,1,10,1z"/>
<path class="st1" d="M3,8h21c0.6,0,1,0.4,1,1l0,0c0,0.6-0.4,1-1,1H3c-0.6,0-1-0.4-1-1l0,0C2,8.4,2.4,8,3,8z"/>
<path class="st1" d="M3,15h21c0.6,0,1,0.4,1,1l0,0c0,0.6-0.4,1-1,1H3c-0.6,0-1-0.4-1-1l0,0C2,15.4,2.4,15,3,15z"/>
</svg>
