<?xml version="1.0" encoding="utf-8"?>
<!-- Generator: Adobe Illustrator 27.0.0, SVG Export Plug-In . SVG Version: 6.00 Build 0)  -->
<svg version="1.1" id="Layer_1" xmlns="http://www.w3.org/2000/svg" xmlns:xlink="http://www.w3.org/1999/xlink" x="0px" y="0px"
	 viewBox="0 0 28.4 28.4" style="enable-background:new 0 0 28.4 28.4;" xml:space="preserve">
<style type="text/css">
	.st0{fill:#20B2AA;}
</style>
<path class="st0" d="M14.2,0C6.3,0,0,6.3,0,14.2s6.3,14.2,14.2,14.2s14.2-6.3,14.2-14.2S22.1,0,14.2,0z M18.3,20.2
	c-1.4-1.4-2.8-2.8-4.1-4.1c-1.4,1.4-2.8,2.8-4.1,4.1c-1.2,1.2-3.1-0.7-1.9-1.9c1.4-1.4,2.8-2.8,4.1-4.1c-1.4-1.4-2.8-2.8-4.1-4.1
	C7,8.9,8.9,7,10.1,8.2l4.1,4.1l4.1-4.1c1.2-1.2,3.1,0.7,1.9,1.9c-1.4,1.4-2.8,2.8-4.1,4.1c1.4,1.4,2.8,2.8,4.1,4.1
	C21.4,19.5,19.5,21.4,18.3,20.2L18.3,20.2z"/>
</svg>
